HIERARCHY
ROOT hip
{
  OFFSET 0 90.174 2.4664
  CHANNELS 6 Xposition Yposition Zposition Zrotation Xrotation Yrotation
  JOINT abdomen
  {
    OFFSET 0 -1.186 -1.5018
    CHANNELS 6 Xposition Yposition Zposition Zrotation Xrotation Yrotation
    JOINT abdomen2
    {
      OFFSET 0 9.964 0.2134
      CHANNELS 6 Xposition Yposition Zposition Zrotation Xrotation Yrotation
      JOINT chest
      {
        OFFSET 0 13.134 -3.2573
        CHANNELS 6 Xposition Yposition Zposition Zrotation Xrotation Yrotation
        JOINT neck
        {
          OFFSET 0 20.686 -1.6905
          CHANNELS 6 Xposition Yposition Zposition Zrotation Xrotation Yrotation
          JOINT head
          {
            OFFSET 0 7.238 -0.1237
            CHANNELS 6 Xposition Yposition Zposition Zrotation Xrotation Yrotation
            End Site
            {
              OFFSET 0 0 0
            }
          }
        }
        JOINT lCollar
        {
          OFFSET 1.7069 20.075 5.0056
          CHANNELS 6 Xposition Yposition Zposition Zrotation Xrotation Yrotation
          JOINT lShldr
          {
            OFFSET 13.6458 -0.047 -4.849
            CHANNELS 6 Xposition Yposition Zposition Zrotation Xrotation Yrotation
            JOINT lForeArm
            {
              OFFSET 28.3255 -0.9759 2.2888
              CHANNELS 6 Xposition Yposition Zposition Zrotation Xrotation Yrotation
              JOINT lHand
              {
                OFFSET 22.1583 -0.53 10.8316
                CHANNELS 6 Xposition Yposition Zposition Zrotation Xrotation Yrotation
                JOINT lThumb1
                {
                  OFFSET 0.786 0.112 2.5817
                  CHANNELS 6 Xposition Yposition Zposition Zrotation Xrotation Yrotation
                  JOINT lThumb2
                  {
                    OFFSET 0.3601 -0.878 4.2331
                    CHANNELS 6 Xposition Yposition Zposition Zrotation Xrotation Yrotation
                    JOINT lThumb2_End
                    {
                      OFFSET 1.8127 -1.216 2.2227
                      CHANNELS 6 Xposition Yposition Zposition Zrotation Xrotation Yrotation
                      End Site
                      {
                        OFFSET 0.0181 -0.0122 0.0222
                      }
                    }
                  }
                }
                JOINT lCarpal1
                {
                  OFFSET 0.9571 1.114 1.7695
                  CHANNELS 6 Xposition Yposition Zposition Zrotation Xrotation Yrotation
                  JOINT lIndex1
                  {
                    OFFSET 4.1246 0.487 4.1451
                    CHANNELS 6 Xposition Yposition Zposition Zrotation Xrotation Yrotation
                    JOINT lIndex2
                    {
                      OFFSET 3.4052 -1.454 2.7682
                      CHANNELS 6 Xposition Yposition Zposition Zrotation Xrotation Yrotation
                      JOINT lIndex2_End
                      {
                        OFFSET 1.4531 -1.795 1.2713
                        CHANNELS 6 Xposition Yposition Zposition Zrotation Xrotation Yrotation
                        End Site
                        {
                          OFFSET 0.0145 -0.0179 0.0127
                        }
                      }
                    }
                  }
                  JOINT lMid1
                  {
                    OFFSET 5.6954 0.21 2.1184
                    CHANNELS 6 Xposition Yposition Zposition Zrotation Xrotation Yrotation
                    JOINT lMid2
                    {
                      OFFSET 3.9766 -1.54 2.3863
                      CHANNELS 6 Xposition Yposition Zposition Zrotation Xrotation Yrotation
                      JOINT lMid2_End
                      {
                        OFFSET 1.4042 -1.926 1.125
                        CHANNELS 6 Xposition Yposition Zposition Zrotation Xrotation Yrotation
                        End Site
                        {
                          OFFSET 0.014 -0.0193 0.0113
                        }
                      }
                    }
                  }
                }
                JOINT lCarpal2
                {
                  OFFSET 2.0956 0.66 -0.3894
                  CHANNELS 6 Xposition Yposition Zposition Zrotation Xrotation Yrotation
                  JOINT lRing1
                  {
                    OFFSET 5.0395 -0.09 2.4971
                    CHANNELS 6 Xposition Yposition Zposition Zrotation Xrotation Yrotation
                    JOINT lRing2
                    {
                      OFFSET 3.7921 -1.552 1.4806
                      CHANNELS 6 Xposition Yposition Zposition Zrotation Xrotation Yrotation
                      JOINT lRing2_End
                      {
                        OFFSET 1.4655 -1.808 0.9609
                        CHANNELS 6 Xposition Yposition Zposition Zrotation Xrotation Yrotation
                        End Site
                        {
                          OFFSET 0.0147 -0.0181 0.0096
                        }
                      }
                    }
                  }
                  JOINT lPinky1
                  {
                    OFFSET 4.9141 -1.269 0.3591
                    CHANNELS 6 Xposition Yposition Zposition Zrotation Xrotation Yrotation
                    JOINT lPinky2
                    {
                      OFFSET 3.1477 -1.685 0.8462
                      CHANNELS 6 Xposition Yposition Zposition Zrotation Xrotation Yrotation
                      JOINT lPinky2_End
                      {
                        OFFSET 0.8055 -1.585 0.7955
                        CHANNELS 6 Xposition Yposition Zposition Zrotation Xrotation Yrotation
                        End Site
                        {
                          OFFSET 0.0081 -0.0158 0.008
                        }
                      }
                    }
                  }
                }
              }
            }
          }
        }
        JOINT rCollar
        {
          OFFSET -1.7069 20.075 5.0056
          CHANNELS 6 Xposition Yposition Zposition Zrotation Xrotation Yrotation
          JOINT rShldr
          {
            OFFSET -13.6458 -0.047 -4.849
            CHANNELS 6 Xposition Yposition Zposition Zrotation Xrotation Yrotation
            JOINT rForeArm
            {
              OFFSET -28.3255 -0.9759 2.2888
              CHANNELS 6 Xposition Yposition Zposition Zrotation Xrotation Yrotation
              JOINT rHand
              {
                OFFSET -22.1583 -0.53 10.8316
                CHANNELS 6 Xposition Yposition Zposition Zrotation Xrotation Yrotation
                JOINT rThumb1
                {
                  OFFSET -0.786 0.112 2.5817
                  CHANNELS 6 Xposition Yposition Zposition Zrotation Xrotation Yrotation
                  JOINT rThumb2
                  {
                    OFFSET -0.3601 -0.878 4.2331
                    CHANNELS 6 Xposition Yposition Zposition Zrotation Xrotation Yrotation
                    JOINT rThumb2_End
                    {
                      OFFSET -1.8127 -1.216 2.2227
                      CHANNELS 6 Xposition Yposition Zposition Zrotation Xrotation Yrotation
                      End Site
                      {
                        OFFSET -0.0181 -0.0122 0.0222
                      }
                    }
                  }
                }
                JOINT rCarpal1
                {
                  OFFSET -0.9571 1.114 1.7695
                  CHANNELS 6 Xposition Yposition Zposition Zrotation Xrotation Yrotation
                  JOINT rIndex1
                  {
                    OFFSET -4.1246 0.487 4.1451
                    CHANNELS 6 Xposition Yposition Zposition Zrotation Xrotation Yrotation
                    JOINT rIndex2
                    {
                      OFFSET -3.4052 -1.454 2.7682
                      CHANNELS 6 Xposition Yposition Zposition Zrotation Xrotation Yrotation
                      JOINT rIndex2_End
                      {
                        OFFSET -1.4531 -1.795 1.2713
                        CHANNELS 6 Xposition Yposition Zposition Zrotation Xrotation Yrotation
                        End Site
                        {
                          OFFSET -0.0145 -0.018 0.0127
                        }
                      }
                    }
                  }
                  JOINT rMid1
                  {
                    OFFSET -5.6954 0.21 2.1184
                    CHANNELS 6 Xposition Yposition Zposition Zrotation Xrotation Yrotation
                    JOINT rMid2
                    {
                      OFFSET -3.9766 -1.54 2.3863
                      CHANNELS 6 Xposition Yposition Zposition Zrotation Xrotation Yrotation
                      JOINT rMid2_End
                      {
                        OFFSET -1.4042 -1.926 1.125
                        CHANNELS 6 Xposition Yposition Zposition Zrotation Xrotation Yrotation
                        End Site
                        {
                          OFFSET -0.014 -0.0193 0.0113
                        }
                      }
                    }
                  }
                }
                JOINT rCarpal2
                {
                  OFFSET -2.0956 0.66 -0.3894
                  CHANNELS 6 Xposition Yposition Zposition Zrotation Xrotation Yrotation
                  JOINT rRing1
                  {
                    OFFSET -5.0395 -0.09 2.4971
                    CHANNELS 6 Xposition Yposition Zposition Zrotation Xrotation Yrotation
                    JOINT rRing2
                    {
                      OFFSET -3.7921 -1.552 1.4806
                      CHANNELS 6 Xposition Yposition Zposition Zrotation Xrotation Yrotation
                      JOINT rRing2_End
                      {
                        OFFSET -1.4655 -1.808 0.9609
                        CHANNELS 6 Xposition Yposition Zposition Zrotation Xrotation Yrotation
                        End Site
                        {
                          OFFSET -0.0147 -0.0181 0.0096
                        }
                      }
                    }
                  }
                  JOINT rPinky1
                  {
                    OFFSET -4.9141 -1.269 0.3592
                    CHANNELS 6 Xposition Yposition Zposition Zrotation Xrotation Yrotation
                    JOINT rPinky2
                    {
                      OFFSET -3.1477 -1.685 0.8462
                      CHANNELS 6 Xposition Yposition Zposition Zrotation Xrotation Yrotation
                      JOINT rPinky2_End
                      {
                        OFFSET -0.8055 -1.585 0.7955
                        CHANNELS 6 Xposition Yposition Zposition Zrotation Xrotation Yrotation
                        End Site
                        {
                          OFFSET -0.0081 -0.0158 0.008
                        }
                      }
                    }
                  }
                }
              }
            }
          }
        }
      }
    }
  }
  JOINT lThigh
  {
    OFFSET 8.367 -8.2066 0.5982
    CHANNELS 6 Xposition Yposition Zposition Zrotation Xrotation Yrotation
    JOINT lShin
    {
      OFFSET 2.1923 -43.463 -0.4932
      CHANNELS 6 Xposition Yposition Zposition Zrotation Xrotation Yrotation
      JOINT lFoot
      {
        OFFSET 0.7333 -45.8593 -2.6451
        CHANNELS 6 Xposition Yposition Zposition Zrotation Xrotation Yrotation
        End Site
        {
          OFFSET 2.6618 -4.2699 12.3931
        }
      }
    }
  }
  JOINT rThigh
  {
    OFFSET -8.367 -8.2066 0.5982
    CHANNELS 6 Xposition Yposition Zposition Zrotation Xrotation Yrotation
    JOINT rShin
    {
      OFFSET -2.1923 -43.463 -0.4931
      CHANNELS 6 Xposition Yposition Zposition Zrotation Xrotation Yrotation
      JOINT rFoot
      {
        OFFSET -0.7333 -45.8593 -2.6451
        CHANNELS 6 Xposition Yposition Zposition Zrotation Xrotation Yrotation
        End Site
        {
          OFFSET -2.6618 -4.2699 12.3931
        }
      }
    }
  }
}
MOTION
Frames:	4
Frame Time:	0.0333333
0 90.174 2.4664 0 0 -0 0 -1.186 -1.5018 0 0 -0 0 9.964 0.2134 0 0 -0 0 13.134 -3.2573 0 0 -0 0 20.686 -1.6905 0 0 -0 0 7.238 -0.1237 0 0 -0 1.7069 20.075 5.0056 0 0 -0 13.6458 -0.047 -4.849 1.66051 0.0835086 5.75766 28.3255 -0.9759 2.2888 -0.0175111 0.895433 15.7816 22.1583 -0.53 10.8316 7.95139e-016 -1.98785e-016 -0 0.786 0.112 2.5817 5.46658e-016 -3.97569e-016 -0 0.3601 -0.878 4.2331 5.96354e-016 0 -0 1.8127 -1.216 2.2227 3.97569e-016 1.98785e-016 9.54166e-015 0.9571 1.114 1.7695 1.49089e-016 -3.97569e-016 -0 4.1246 0.487 4.1451 6.4605e-016 0 3.18055e-015 3.4052 -1.454 2.7682 5.96354e-016 0 3.18055e-015 1.4531 -1.795 1.2713 8.94531e-016 -1.98785e-016 6.36111e-015 5.6954 0.21 2.1184 6.4605e-016 0 3.18055e-015 3.9766 -1.54 2.3863 5.96354e-016 0 3.18055e-015 1.4042 -1.926 1.125 8.94531e-016 -1.98785e-016 6.36111e-015 2.0956 0.66 -0.3894 1.49089e-016 -3.97569e-016 -0 5.0395 -0.09 2.4971 6.4605e-016 0 3.18055e-015 3.7921 -1.552 1.4806 5.96354e-016 0 3.18055e-015 1.4655 -1.808 0.9609 8.94531e-016 -1.98785e-016 6.36111e-015 4.9141 -1.269 0.3591 6.4605e-016 0 3.18055e-015 3.1477 -1.685 0.8462 5.96354e-016 0 3.18055e-015 0.8055 -1.585 0.7955 8.94531e-016 -1.98785e-016 6.36111e-015 -1.7069 20.075 5.0056 0 0 -0 -13.6458 -0.047 -4.849 -1.4496 0.0636048 -5.0245 -28.3255 -0.9759 2.2888 -1.74811 1.20616 -16.8394 -22.1583 -0.53 10.8316 -1.19271e-015 1.98785e-016 -3.18055e-015 -0.786 0.112 2.5817 -3.97569e-016 1.98785e-016 -3.18055e-015 -0.3601 -0.878 4.2331 -2.98177e-016 1.98785e-016 -3.18055e-015 -1.8127 -1.216 2.2227 -2.98177e-016 3.97569e-016 -0 -0.9571 1.114 1.7695 4.96962e-016 0 -6.36111e-015 -4.1246 0.487 4.1451 -9.93923e-017 3.97569e-016 -0 -3.4052 -1.454 2.7682 -8.94531e-016 5.96354e-016 -0 -1.4531 -1.795 1.2713 -3.97569e-016 3.97569e-016 -0 -5.6954 0.21 2.1184 -9.93923e-017 3.97569e-016 -0 -3.9766 -1.54 2.3863 -8.94531e-016 5.96354e-016 -0 -1.4042 -1.926 1.125 -3.97569e-016 3.97569e-016 -0 -2.0956 0.66 -0.3894 4.96962e-016 0 -6.36111e-015 -5.0395 -0.09 2.4971 -9.93923e-017 3.97569e-016 -0 -3.7921 -1.552 1.4806 -8.94531e-016 5.96354e-016 -0 -1.4655 -1.808 0.9609 -3.97569e-016 3.97569e-016 -0 -4.9141 -1.269 0.3592 -9.93923e-017 3.97569e-016 -0 -3.1477 -1.685 0.8462 -8.94531e-016 5.96354e-016 -0 -0.8055 -1.585 0.7955 -3.97569e-016 3.97569e-016 -0 8.367 -8.2066 0.5982 -4.66115 -1.03232 0.120763 2.1923 -43.463 -0.4932 0.00990601 1.55097 0.177175 0.7333 -45.8593 -2.6451 4.65196 -0.54114 -0.255042 -8.367 -8.2066 0.5982 4.66115 -1.03222 -0.120763 -2.1923 -43.463 -0.4931 -0.00990459 1.5509 -0.177176 -0.7333 -45.8593 -2.6451 -4.65196 -0.541171 0.255041 
-30.2932 -0.729144 -9.76396 -180 -89.9981 -180 0 -1.186 -1.5018 -0.363065 8.41609 -0.0759627 0 9.964 0.2134 -0.726681 16.8325 -0.0989529 -3.55271e-015 13.134 -3.2573 -0.726681 16.8325 -0.0989524 3.55271e-015 20.686 -1.6905 -2.20004e-005 17.9985 4.30959e-006 0 7.238 -0.1237 -1.33825e-007 8.99857 1.49181e-007 1.7069 20.075 5.0056 0.841571 0.295564 8.94055 13.6458 -0.047 -4.849 -54.5004 15.0435 38.3079 28.3255 -0.9759 2.2888 40.218 -16.0202 -59.3664 22.1583 -0.53 10.8316 -5.76531 12.173 -32.6196 0.786 0.112 2.5817 1.68749e-007 4.64019e-007 1.24767e-006 0.3601 -0.878 4.2331 3.35833e-007 2.55572e-007 -6.40714e-008 1.8127 -1.216 2.2227 1.67916e-007 1.27786e-007 -3.20357e-008 0.9571 1.114 1.7695 1.59028e-015 3.97569e-015 -4.77083e-015 4.1246 0.487 4.1451 1.68749e-007 4.64019e-007 1.24767e-006 3.4052 -1.454 2.7682 3.35833e-007 2.55572e-007 -6.40714e-008 1.4531 -1.795 1.2713 1.67916e-007 1.27786e-007 -3.20357e-008 5.6954 0.21 2.1184 1.68749e-007 4.64019e-007 1.24767e-006 3.9766 -1.54 2.3863 3.35833e-007 2.55572e-007 -6.40714e-008 1.4042 -1.926 1.125 1.67916e-007 1.27786e-007 -3.20357e-008 2.0956 0.66 -0.3894 1.59028e-015 3.97569e-015 -4.77083e-015 5.0395 -0.09 2.4971 1.68749e-007 4.64019e-007 1.24767e-006 3.7921 -1.552 1.4806 3.35833e-007 2.55572e-007 -6.40714e-008 1.4655 -1.808 0.9609 1.67916e-007 1.27786e-007 -3.20357e-008 4.9141 -1.269 0.3591 1.68749e-007 4.64019e-007 1.24767e-006 3.1477 -1.685 0.8462 3.35833e-007 2.55572e-007 -6.40714e-008 0.8055 -1.585 0.7955 1.67916e-007 1.27786e-007 -3.20357e-008 -1.7069 20.075 5.0056 -0.60742 0.433275 -8.61063 -13.6458 -0.047 -4.849 75.8927 1.41999 -35.2984 -28.3255 -0.9759 2.2888 -34 2.76002 59.9728 -22.1583 -0.53 10.8316 -3.12827 24.2761 3.39523 -0.786 0.112 2.5817 -1.2315e-006 2.18696e-006 -2.90934e-006 -0.3601 -0.878 4.2331 1.2315e-006 -2.18696e-006 2.90934e-006 -1.8127 -1.216 2.2227 -1.2315e-006 2.18696e-006 -2.90934e-006 -0.9571 1.114 1.7695 -3.18055e-015 7.55382e-015 -9.54166e-015 -4.1246 0.487 4.1451 -1.2315e-006 2.18696e-006 -2.90934e-006 -3.4052 -1.454 2.7682 1.2315e-006 -2.18696e-006 2.90934e-006 -1.4531 -1.795 1.2713 -1.2315e-006 2.18696e-006 -2.90934e-006 -5.6954 0.21 2.1184 -1.2315e-006 2.18696e-006 -2.90934e-006 -3.9766 -1.54 2.3863 1.2315e-006 -2.18696e-006 2.90934e-006 -1.4042 -1.926 1.125 -1.2315e-006 2.18696e-006 -2.90934e-006 -2.0956 0.66 -0.3894 -3.18055e-015 7.55382e-015 -9.54166e-015 -5.0395 -0.09 2.4971 -1.2315e-006 2.18696e-006 -2.90934e-006 -3.7921 -1.552 1.4806 1.2315e-006 -2.18696e-006 2.90934e-006 -1.4655 -1.808 0.9609 -1.2315e-006 2.18696e-006 -2.90934e-006 -4.9141 -1.269 0.3592 -1.2315e-006 2.18696e-006 -2.90934e-006 -3.1477 -1.685 0.8462 1.2315e-006 -2.18696e-006 2.90934e-006 -0.8055 -1.585 0.7955 -1.2315e-006 2.18696e-006 -2.90934e-006 8.367 -8.2066 0.5982 14.4162 0.169644 1.3797 2.1923 -43.463 -0.4932 -2.04091 7.85131 2.64164 0.7333 -45.8593 -2.6451 10.5348 42.2265 -9.22724 -8.367 -8.2066 0.5982 -5.33503 -27.7525 -6.43622 -2.1923 -43.463 -0.4931 4.54397 62.6272 -6.50985 -0.7333 -45.8593 -2.6451 -10.7044 21.1498 -0.358501 
-30.2945 -0.731597 -9.76304 -180 -89.9981 -180 0 -1.186 -1.5018 -0.363065 8.41609 -0.0759628 0 9.964 0.2134 -0.726681 16.8325 -0.0989528 -3.55271e-015 13.134 -3.2573 -0.72668 16.8325 -0.0989523 0 20.686 -1.6905 -0.00789284 17.8542 0.0475768 -3.55271e-015 7.238 -0.1237 -1.6152e-007 8.43285 -2.44796e-007 1.7069 20.075 5.0056 0.841571 0.295564 8.94055 13.6458 -0.047 -4.849 -54.5004 15.0435 38.3079 28.3255 -0.9759 2.2888 39.6919 -16.1312 -60.034 22.1583 -0.53 10.8316 -5.76531 12.173 -32.6196 0.786 0.112 2.5817 3.34285e-007 2.57197e-007 -6.56395e-008 0.3601 -0.878 4.2331 3.34285e-007 2.57197e-007 -6.56395e-008 1.8127 -1.216 2.2227 3.34285e-007 2.57197e-007 -6.56395e-008 0.9571 1.114 1.7695 1.59028e-015 0 1.59028e-015 4.1246 0.487 4.1451 3.34285e-007 2.57197e-007 -6.56394e-008 3.4052 -1.454 2.7682 3.34285e-007 2.57197e-007 -6.56395e-008 1.4531 -1.795 1.2713 3.34285e-007 2.57197e-007 -6.56395e-008 5.6954 0.21 2.1184 3.34285e-007 2.57197e-007 -6.56394e-008 3.9766 -1.54 2.3863 3.34285e-007 2.57197e-007 -6.56395e-008 1.4042 -1.926 1.125 3.34285e-007 2.57197e-007 -6.56395e-008 2.0956 0.66 -0.3894 1.59028e-015 0 1.59028e-015 5.0395 -0.09 2.4971 3.34285e-007 2.57197e-007 -6.56394e-008 3.7921 -1.552 1.4806 3.34285e-007 2.57197e-007 -6.56395e-008 1.4655 -1.808 0.9609 3.34285e-007 2.57197e-007 -6.56395e-008 4.9141 -1.269 0.3591 3.34285e-007 2.57197e-007 -6.56394e-008 3.1477 -1.685 0.8462 3.34285e-007 2.57197e-007 -6.56395e-008 0.8055 -1.585 0.7955 3.34285e-007 2.57197e-007 -6.56395e-008 -1.7069 20.075 5.0056 -0.60742 0.433275 -8.61063 -13.6458 -0.047 -4.849 75.8927 1.41999 -35.2984 -28.3255 -0.9759 2.2888 -34 2.76002 59.9728 -22.1583 -0.53 10.8316 -3.12827 24.2761 3.39523 -0.786 0.112 2.5817 -1.2315e-006 2.18696e-006 -2.90934e-006 -0.3601 -0.878 4.2331 1.2315e-006 -2.18696e-006 2.90934e-006 -1.8127 -1.216 2.2227 -1.2315e-006 2.18696e-006 -2.90934e-006 -0.9571 1.114 1.7695 1.59028e-015 6.36111e-015 9.54166e-015 -4.1246 0.487 4.1451 -1.2315e-006 2.18696e-006 -2.90934e-006 -3.4052 -1.454 2.7682 1.2315e-006 -2.18696e-006 2.90934e-006 -1.4531 -1.795 1.2713 -1.2315e-006 2.18696e-006 -2.90934e-006 -5.6954 0.21 2.1184 -1.2315e-006 2.18696e-006 -2.90934e-006 -3.9766 -1.54 2.3863 1.2315e-006 -2.18696e-006 2.90934e-006 -1.4042 -1.926 1.125 -1.2315e-006 2.18696e-006 -2.90934e-006 -2.0956 0.66 -0.3894 1.59028e-015 6.36111e-015 9.54166e-015 -5.0395 -0.09 2.4971 -1.2315e-006 2.18696e-006 -2.90934e-006 -3.7921 -1.552 1.4806 1.2315e-006 -2.18696e-006 2.90934e-006 -1.4655 -1.808 0.9609 -1.2315e-006 2.18696e-006 -2.90934e-006 -4.9141 -1.269 0.3592 -1.2315e-006 2.18696e-006 -2.90934e-006 -3.1477 -1.685 0.8462 1.2315e-006 -2.18696e-006 2.90934e-006 -0.8055 -1.585 0.7955 -1.2315e-006 2.18696e-006 -2.90934e-006 8.367 -8.2066 0.5982 14.4172 0.164301 1.37947 2.1923 -43.463 -0.4932 -2.041 7.85882 2.6417 0.7333 -45.8593 -2.6451 10.5332 42.2245 -9.2264 -8.367 -8.2066 0.5982 -5.55315 -27.7924 -6.88243 -2.1923 -43.463 -0.4931 4.54434 62.6285 -6.50911 -0.7333 -45.8593 -2.6451 -10.7015 21.1421 -0.359024 
-30.2957 -0.734056 -9.76214 -180 -89.9981 -180 0 -1.186 -1.5018 -0.363065 8.41609 -0.0759628 0 9.964 0.2134 -0.726681 16.8325 -0.0989528 -7.10543e-015 13.134 -3.2573 -0.72668 16.8325 -0.0989523 0 20.686 -1.6905 -0.0156739 17.71 0.0951068 0 7.238 -0.1237 2.77714e-007 7.86623 5.03246e-008 1.7069 20.075 5.0056 0.841571 0.295564 8.94055 13.6458 -0.047 -4.849 -54.5004 15.0435 38.3079 28.3255 -0.9759 2.2888 39.1631 -16.2365 -60.7041 22.1583 -0.53 10.8316 -5.76531 12.173 -32.6196 0.786 0.112 2.5817 3.32721e-007 2.58814e-007 -6.72076e-008 0.3601 -0.878 4.2331 3.32721e-007 2.58814e-007 -6.72077e-008 1.8127 -1.216 2.2227 -4.77083e-015 -8.34896e-015 -3.18055e-015 0.9571 1.114 1.7695 -6.62086e-032 2.38542e-015 1.59028e-015 4.1246 0.487 4.1451 3.32721e-007 2.58814e-007 -6.72076e-008 3.4052 -1.454 2.7682 3.32721e-007 2.58814e-007 -6.72077e-008 1.4531 -1.795 1.2713 -6.36111e-015 -7.55382e-015 -3.18055e-015 5.6954 0.21 2.1184 3.32721e-007 2.58814e-007 -6.72076e-008 3.9766 -1.54 2.3863 3.32721e-007 2.58814e-007 -6.72077e-008 1.4042 -1.926 1.125 -6.36111e-015 -7.55382e-015 -3.18055e-015 2.0956 0.66 -0.3894 -6.62086e-032 2.38542e-015 1.59028e-015 5.0395 -0.09 2.4971 3.32721e-007 2.58814e-007 -6.72076e-008 3.7921 -1.552 1.4806 3.32721e-007 2.58814e-007 -6.72077e-008 1.4655 -1.808 0.9609 -6.36111e-015 -7.55382e-015 -3.18055e-015 4.9141 -1.269 0.3591 3.32721e-007 2.58814e-007 -6.72076e-008 3.1477 -1.685 0.8462 3.32721e-007 2.58814e-007 -6.72077e-008 0.8055 -1.585 0.7955 -6.36111e-015 -7.55382e-015 -3.18055e-015 -1.7069 20.075 5.0056 -0.60742 0.433275 -8.61063 -13.6458 -0.047 -4.849 75.8927 1.41999 -35.2984 -28.3255 -0.9759 2.2888 -34 2.76001 59.9728 -22.1583 -0.53 10.8316 -3.12826 24.2761 3.39523 -0.786 0.112 2.5817 -2.70264e-006 2.95308e-006 -2.64571e-006 -0.3601 -0.878 4.2331 -7.66121e-007 -1.47114e-006 3.08262e-007 -1.8127 -1.216 2.2227 -1.54487e-031 -2.78299e-015 -3.18055e-015 -0.9571 1.114 1.7695 7.95139e-016 4.37326e-015 6.36111e-015 -4.1246 0.487 4.1451 -2.70264e-006 2.95308e-006 -2.64571e-006 -3.4052 -1.454 2.7682 -7.66121e-007 -1.47114e-006 3.08262e-007 -1.4531 -1.795 1.2713 1.59028e-015 -2.38542e-015 -3.18055e-015 -5.6954 0.21 2.1184 -2.70264e-006 2.95308e-006 -2.64571e-006 -3.9766 -1.54 2.3863 -7.66121e-007 -1.47114e-006 3.08262e-007 -1.4042 -1.926 1.125 1.59028e-015 -2.38542e-015 -3.18055e-015 -2.0956 0.66 -0.3894 7.95139e-016 4.37326e-015 6.36111e-015 -5.0395 -0.09 2.4971 -2.70264e-006 2.95308e-006 -2.64571e-006 -3.7921 -1.552 1.4806 -7.66121e-007 -1.47114e-006 3.08262e-007 -1.4655 -1.808 0.9609 1.59028e-015 -2.38542e-015 -3.18055e-015 -4.9141 -1.269 0.3592 -2.70264e-006 2.95308e-006 -2.64571e-006 -3.1477 -1.685 0.8462 -7.66121e-007 -1.47114e-006 3.08262e-007 -0.8055 -1.585 0.7955 1.59028e-015 -2.38542e-015 -3.18055e-015 8.367 -8.2066 0.5982 14.4182 0.159097 1.37922 2.1923 -43.463 -0.4932 -2.04105 7.86594 2.64178 0.7333 -45.8593 -2.6451 10.5318 42.2227 -9.22561 -8.367 -8.2066 0.5982 -5.77199 -27.8307 -7.32929 -2.1923 -43.463 -0.4931 4.54473 62.6297 -6.50828 -0.7333 -45.8593 -2.6451 -10.6985 21.1344 -0.359535 
